<?xml version="1.0" encoding="UTF-8" standalone="no"?>
<!DOCTYPE svg PUBLIC "-//W3C//DTD SVG 1.1//EN" "http://www.w3.org/Graphics/SVG/1.1/DTD/svg11.dtd">
<svg version="1.1" xmlns="http://www.w3.org/2000/svg" xmlns:xlink="http://www.w3.org/1999/xlink" preserveAspectRatio="xMidYMid meet" viewBox="0 0 640 640" width="640" height="640"><defs><path d="M320 80.71L320 320L70 320C70 238.59 70 187.71 70 167.36C70 119.51 108.79 80.71 156.64 80.71C178.43 80.71 232.88 80.71 320 80.71Z" id="bjsDW5RIr"></path><path d="M320 80.71C413.19 80.71 471.43 80.71 494.73 80.71C536.3 80.71 570 114.41 570 155.99C570 177.85 570 232.53 570 320L320 320L320 80.71Z" id="a7oVljJFfw"></path><path d="M70 320L320 320L320 559.29C238.94 559.29 188.28 559.29 168.02 559.29C113.88 559.29 70 515.4 70 461.27C70 442.43 70 395.34 70 320Z" id="b1rjiY4yKU"></path><path d="M320 559.29L570 320L320 320L320 559.29Z" id="h97V9yWY9"></path><path d="M339.05 340.24L550.95 340.24C550.95 440.59 550.95 503.3 550.95 528.39C550.95 536.25 544.58 542.62 536.72 542.62C510.37 542.62 444.48 542.62 339.05 542.62L339.05 340.24Z" id="a25wl4B9S0"></path><path d="M233.64 140.54C246.82 140.54 257.5 151.22 257.5 164.4C257.5 183.56 257.5 217.16 257.5 236.31C257.5 249.49 246.82 260.18 233.64 260.18C213.41 260.18 176.59 260.18 156.36 260.18C143.18 260.18 132.5 249.49 132.5 236.31C132.5 217.16 132.5 183.56 132.5 164.4C132.5 151.22 143.18 140.54 156.36 140.54C176.59 140.54 213.41 140.54 233.64 140.54Z" id="e17VucVPUN"></path><path d="M184.29 233.24C184.29 244.82 174.42 254.23 162.26 254.23C150.11 254.23 140.24 244.82 140.24 233.24C140.24 221.66 150.11 212.26 162.26 212.26C174.42 212.26 184.29 221.66 184.29 233.24Z" id="a5dbJDgIv"></path><path d="M250.36 233.24C250.36 244.82 240.49 254.23 228.33 254.23C216.18 254.23 206.31 244.82 206.31 233.24C206.31 221.66 216.18 212.26 228.33 212.26C240.49 212.26 250.36 221.66 250.36 233.24Z" id="a2DNqHiURe"></path><path d="M174.17 245.74C174.17 247.96 172.3 249.76 170 249.76C167.7 249.76 165.83 247.96 165.83 245.74C165.83 243.53 167.7 241.73 170 241.73C172.3 241.73 174.17 243.53 174.17 245.74Z" id="b4m739qbQ"></path><path d="M241.43 245.74C241.43 247.96 239.56 249.76 237.26 249.76C234.96 249.76 233.1 247.96 233.1 245.74C233.1 243.53 234.96 241.73 237.26 241.73C239.56 241.73 241.43 243.53 241.43 245.74Z" id="ab7710MJW"></path><path d="M108.69 166.12C108.69 179.77 119.35 190.83 132.5 190.83C145.65 190.83 156.31 179.77 156.31 166.12C156.31 152.47 145.65 141.41 132.5 120.6C119.35 141.41 108.69 152.47 108.69 166.12Z" id="biPBU1J9T"></path><path d="M114.64 166.73C114.64 179.22 124.5 189.35 136.67 189.35C148.83 189.35 158.69 179.22 158.69 166.73C158.69 154.23 148.83 144.11 136.67 125.06C124.5 144.11 114.64 154.23 114.64 166.73Z" id="aa9KNPjqQ"></path></defs><g><g><g><use xlink:href="#bjsDW5RIr" opacity="1" fill="#c1ff9b" fill-opacity="1"></use></g><g><use xlink:href="#a7oVljJFfw" opacity="1" fill="#b4e1ff" fill-opacity="1"></use></g><g><use xlink:href="#b1rjiY4yKU" opacity="1" fill="#b4e1ff" fill-opacity="1"></use></g><g><use xlink:href="#h97V9yWY9" opacity="1" fill="#8db0c8" fill-opacity="1"></use></g><g><use xlink:href="#a25wl4B9S0" opacity="1" fill="#c1ff9b" fill-opacity="1"></use></g><g><use xlink:href="#e17VucVPUN" opacity="1" fill="#0b3450" fill-opacity="1"></use></g><g><use xlink:href="#a5dbJDgIv" opacity="1" fill="#ffffff" fill-opacity="1"></use></g><g><use xlink:href="#a2DNqHiURe" opacity="1" fill="#ffffff" fill-opacity="1"></use></g><g><use xlink:href="#b4m739qbQ" opacity="1" fill="#0b3450" fill-opacity="1"></use></g><g><use xlink:href="#ab7710MJW" opacity="1" fill="#0b3450" fill-opacity="1"></use></g><g><use xlink:href="#biPBU1J9T" opacity="1" fill="#0b3450" fill-opacity="1"></use></g><g><use xlink:href="#aa9KNPjqQ" opacity="1" fill="#b4e1ff" fill-opacity="1"></use></g></g></g></svg>